<mxfile host="app.diagrams.net" modified="2024-01-21T03:49:10.147Z" agent="Mozilla/5.0 (Windows NT 10.0; Win64; x64) AppleWebKit/537.36 (KHTML, like Gecko) Chrome/120.0.0.0 Safari/537.36" etag="H2PPUwrHCGtCK5Kku88s" version="22.1.21" type="device">
  <diagram name="Page-1" id="u8YS5w4YOPr2ugXbqE4i">
    <mxGraphModel dx="1050" dy="474" grid="1" gridSize="10" guides="1" tooltips="1" connect="1" arrows="1" fold="1" page="1" pageScale="1" pageWidth="850" pageHeight="1100" math="0" shadow="0">
      <root>
        <mxCell id="0" />
        <mxCell id="1" parent="0" />
        <mxCell id="mCSyMKua4eZayQ_JjK3O-1" value="" style="rounded=0;whiteSpace=wrap;html=1;" vertex="1" parent="1">
          <mxGeometry x="120" y="40" width="520" height="130" as="geometry" />
        </mxCell>
        <mxCell id="mCSyMKua4eZayQ_JjK3O-2" value="&lt;font style=&quot;font-size: 20px;&quot;&gt;Banner Image&lt;/font&gt;" style="rounded=1;whiteSpace=wrap;html=1;" vertex="1" parent="1">
          <mxGeometry x="120" y="180" width="520" height="60" as="geometry" />
        </mxCell>
        <mxCell id="mCSyMKua4eZayQ_JjK3O-4" value="" style="rounded=0;whiteSpace=wrap;html=1;" vertex="1" parent="1">
          <mxGeometry x="120" y="250" width="520" height="120" as="geometry" />
        </mxCell>
        <mxCell id="mCSyMKua4eZayQ_JjK3O-7" value="&lt;h1&gt;Mount Crumpit&lt;/h1&gt;&lt;p&gt;Lorem ipsum dolor sit amet, consectetur adipisicing elit, sed do eiusmod tempor incididunt ut labore et dolore magna aliqua.&lt;/p&gt;" style="text;html=1;strokeColor=none;fillColor=none;spacing=5;spacingTop=-20;whiteSpace=wrap;overflow=hidden;rounded=0;" vertex="1" parent="1">
          <mxGeometry x="240" y="50" width="170" height="110" as="geometry" />
        </mxCell>
        <mxCell id="mCSyMKua4eZayQ_JjK3O-9" value="" style="whiteSpace=wrap;html=1;aspect=fixed;" vertex="1" parent="1">
          <mxGeometry x="140" y="65" width="80" height="80" as="geometry" />
        </mxCell>
        <mxCell id="mCSyMKua4eZayQ_JjK3O-10" value="Logo" style="text;html=1;strokeColor=none;fillColor=none;align=center;verticalAlign=middle;whiteSpace=wrap;rounded=0;" vertex="1" parent="1">
          <mxGeometry x="150" y="90" width="60" height="30" as="geometry" />
        </mxCell>
        <mxCell id="mCSyMKua4eZayQ_JjK3O-11" value="FB" style="ellipse;whiteSpace=wrap;html=1;aspect=fixed;" vertex="1" parent="1">
          <mxGeometry x="430" y="82.5" width="45" height="45" as="geometry" />
        </mxCell>
        <mxCell id="mCSyMKua4eZayQ_JjK3O-12" value="IN" style="ellipse;whiteSpace=wrap;html=1;aspect=fixed;" vertex="1" parent="1">
          <mxGeometry x="480" y="82.5" width="45" height="45" as="geometry" />
        </mxCell>
        <mxCell id="mCSyMKua4eZayQ_JjK3O-17" value="Ham&lt;br&gt;menu" style="whiteSpace=wrap;html=1;aspect=fixed;" vertex="1" parent="1">
          <mxGeometry x="590" y="50" width="40" height="40" as="geometry" />
        </mxCell>
        <mxCell id="mCSyMKua4eZayQ_JjK3O-19" value="&lt;h1&gt;&lt;span style=&quot;background-color: initial; font-size: 12px; font-weight: normal;&quot;&gt;Lorem ipsum dolor sit amet, consectetur adipisicing elit, sed do eiusmod tempor incididunt ut labore et dolore magna aliqua.&lt;/span&gt;&lt;br&gt;&lt;/h1&gt;" style="text;html=1;strokeColor=none;fillColor=none;spacing=5;spacingTop=-20;whiteSpace=wrap;overflow=hidden;rounded=0;" vertex="1" parent="1">
          <mxGeometry x="150" y="250" width="470" height="120" as="geometry" />
        </mxCell>
        <mxCell id="mCSyMKua4eZayQ_JjK3O-21" value="" style="rounded=0;whiteSpace=wrap;html=1;" vertex="1" parent="1">
          <mxGeometry x="120" y="380" width="520" height="120" as="geometry" />
        </mxCell>
        <mxCell id="mCSyMKua4eZayQ_JjK3O-22" value="&lt;h1&gt;&lt;font style=&quot;font-size: 10px;&quot;&gt;Lorem ipsum dolor sit amet, consecetur adipisicing elit, sed do eiusmod tempor incididunt ut labore et dolore magna aliqua.&lt;/font&gt;&lt;/h1&gt;" style="text;html=1;strokeColor=none;fillColor=none;spacing=5;spacingTop=-20;whiteSpace=wrap;overflow=hidden;rounded=0;" vertex="1" parent="1">
          <mxGeometry x="140" y="380" width="480" height="110" as="geometry" />
        </mxCell>
        <mxCell id="mCSyMKua4eZayQ_JjK3O-23" value="" style="rounded=1;whiteSpace=wrap;html=1;" vertex="1" parent="1">
          <mxGeometry x="120" y="510" width="520" height="60" as="geometry" />
        </mxCell>
        <mxCell id="mCSyMKua4eZayQ_JjK3O-24" value="Member Spotlight" style="text;html=1;strokeColor=none;fillColor=none;align=center;verticalAlign=middle;whiteSpace=wrap;rounded=0;fontSize=23;" vertex="1" parent="1">
          <mxGeometry x="250" y="525" width="270" height="30" as="geometry" />
        </mxCell>
        <mxCell id="mCSyMKua4eZayQ_JjK3O-25" value="" style="rounded=0;whiteSpace=wrap;html=1;" vertex="1" parent="1">
          <mxGeometry x="170" y="580" width="430" height="110" as="geometry" />
        </mxCell>
        <mxCell id="mCSyMKua4eZayQ_JjK3O-26" value="Spotlight Business" style="text;html=1;strokeColor=none;fillColor=none;align=center;verticalAlign=middle;whiteSpace=wrap;rounded=0;fontSize=22;" vertex="1" parent="1">
          <mxGeometry x="220" y="620" width="350" height="30" as="geometry" />
        </mxCell>
        <mxCell id="mCSyMKua4eZayQ_JjK3O-31" value="" style="rounded=0;whiteSpace=wrap;html=1;" vertex="1" parent="1">
          <mxGeometry x="170" y="710" width="430" height="110" as="geometry" />
        </mxCell>
        <mxCell id="mCSyMKua4eZayQ_JjK3O-32" value="Spotlight Business" style="text;html=1;strokeColor=none;fillColor=none;align=center;verticalAlign=middle;whiteSpace=wrap;rounded=0;fontSize=22;" vertex="1" parent="1">
          <mxGeometry x="220" y="750" width="350" height="30" as="geometry" />
        </mxCell>
        <mxCell id="mCSyMKua4eZayQ_JjK3O-33" value="" style="rounded=0;whiteSpace=wrap;html=1;" vertex="1" parent="1">
          <mxGeometry x="170" y="840" width="430" height="110" as="geometry" />
        </mxCell>
        <mxCell id="mCSyMKua4eZayQ_JjK3O-34" value="Spotlight Business" style="text;html=1;strokeColor=none;fillColor=none;align=center;verticalAlign=middle;whiteSpace=wrap;rounded=0;fontSize=22;" vertex="1" parent="1">
          <mxGeometry x="220" y="880" width="350" height="30" as="geometry" />
        </mxCell>
        <mxCell id="mCSyMKua4eZayQ_JjK3O-36" value="" style="rounded=0;whiteSpace=wrap;html=1;" vertex="1" parent="1">
          <mxGeometry x="115" y="965" width="560" height="180" as="geometry" />
        </mxCell>
        <mxCell id="mCSyMKua4eZayQ_JjK3O-37" value="&lt;font style=&quot;font-size: 20px;&quot;&gt;Mount Crumpit Information&lt;/font&gt;" style="text;html=1;strokeColor=none;fillColor=none;align=center;verticalAlign=middle;whiteSpace=wrap;rounded=0;" vertex="1" parent="1">
          <mxGeometry x="235" y="990" width="320" height="30" as="geometry" />
        </mxCell>
        <mxCell id="mCSyMKua4eZayQ_JjK3O-39" value="Location information and interactive map" style="text;html=1;strokeColor=none;fillColor=none;align=center;verticalAlign=middle;whiteSpace=wrap;rounded=0;fontSize=20;" vertex="1" parent="1">
          <mxGeometry x="215" y="1030" width="390" height="30" as="geometry" />
        </mxCell>
        <mxCell id="mCSyMKua4eZayQ_JjK3O-41" value="&lt;font style=&quot;font-size: 20px;&quot;&gt;Author information and last updated date&lt;/font&gt;" style="text;html=1;strokeColor=none;fillColor=none;align=center;verticalAlign=middle;whiteSpace=wrap;rounded=0;" vertex="1" parent="1">
          <mxGeometry x="210" y="1080" width="390" height="30" as="geometry" />
        </mxCell>
      </root>
    </mxGraphModel>
  </diagram>
</mxfile>
